<?xml version="1.0" encoding="utf-8"?><svg xmlns="http://www.w3.org/2000/svg" xmlns:xlink="http://www.w3.org/1999/xlink"><symbol viewBox="0 0 87 87" id="Arrow" xmlns="http://www.w3.org/2000/svg"><svg xmlns="http://www.w3.org/2000/svg" width="87" height="87" viewBox="1.574 1.574 84.853 84.853"><path paint-order="stroke fill markers" d="M44 1.574L86.426 44 44 86.426 1.574 44 44 1.574z"/></svg></symbol><symbol viewBox="0 0 15 29" id="fb" xmlns="http://www.w3.org/2000/svg"><path d="M4.39 15.991v12.707h5.123V15.99h4.253l.653-4.955H9.513V7.872c0-.804.168-1.407.503-1.808.334-.402.982-.603 1.942-.603h2.628V1.04c-.904-.134-2.176-.2-3.817-.2-1.931 0-3.477.572-4.637 1.715C4.97 3.7 4.39 5.31 4.39 7.386v3.65H.12v4.955z"/></symbol><symbol viewBox="0 0 27 26" id="ig" xmlns="http://www.w3.org/2000/svg"><path d="M.531 22.4V3.28c0-.904.324-1.68.971-2.327s1.423-.97 2.327-.97h19.119c.904 0 1.68.323 2.327.97.647.648.97 1.423.97 2.327V22.4c0 .904-.323 1.68-.97 2.327-.648.647-1.423.97-2.327.97H3.829c-.904 0-1.68-.323-2.327-.97-.647-.648-.97-1.423-.97-2.327zm2.863-.687c0 .29.098.533.293.728a.987.987 0 00.728.293h17.896a.996.996 0 00.72-.293.974.974 0 00.302-.728V10.865h-2.26c.223.703.334 1.434.334 2.193a7.42 7.42 0 01-1.071 3.892 7.814 7.814 0 01-2.913 2.821 8.044 8.044 0 01-4.018 1.038c-2.199 0-4.08-.756-5.642-2.268-1.562-1.512-2.343-3.34-2.343-5.483 0-.759.111-1.49.335-2.193h-2.36zM13.405 7.785c-1.417 0-2.631.488-3.641 1.465-1.01.976-1.515 2.157-1.515 3.54 0 1.384.505 2.565 1.515 3.54 1.01.978 2.224 1.466 3.641 1.466 1.429 0 2.648-.488 3.658-1.465 1.01-.976 1.515-2.157 1.515-3.54 0-1.384-.505-2.565-1.515-3.541-1.01-.977-2.23-1.465-3.658-1.465zm4.704-1.021c0 .323.112.597.335.82.223.223.497.335.82.335h2.914c.323 0 .596-.112.82-.335.223-.223.335-.497.335-.82V4c0-.312-.112-.583-.335-.812a1.103 1.103 0 00-.82-.343h-2.913c-.324 0-.598.115-.82.343-.224.229-.336.5-.336.812z"/></symbol><symbol viewBox="0 0 27 22" id="twi" xmlns="http://www.w3.org/2000/svg"><path d="M8.571 21.555c1.92 0 3.722-.304 5.408-.913 1.685-.608 3.125-1.423 4.32-2.444a16.356 16.356 0 003.088-3.524 15.708 15.708 0 001.933-4.16 15.365 15.365 0 00.62-5.047 11.332 11.332 0 002.712-2.796 10.77 10.77 0 01-3.114.837c1.172-.703 1.964-1.696 2.377-2.98a10.605 10.605 0 01-3.432 1.306C21.412.695 20.095.126 18.533.126c-1.496 0-2.771.528-3.826 1.582-1.055 1.055-1.582 2.33-1.582 3.826 0 .401.045.814.134 1.238a15.06 15.06 0 01-6.22-1.665 15.322 15.322 0 01-4.93-3.993 5.296 5.296 0 00-.736 2.729c0 .926.217 1.785.653 2.578a5.398 5.398 0 001.758 1.925 5.365 5.365 0 01-2.445-.686v.067c0 1.305.41 2.452 1.23 3.44a5.32 5.32 0 003.106 1.866 5.583 5.583 0 01-1.423.185c-.312 0-.653-.028-1.02-.084a5.286 5.286 0 001.908 2.67 5.27 5.27 0 003.147 1.08c-1.965 1.54-4.202 2.31-6.713 2.31-.48 0-.916-.022-1.306-.067 2.511 1.619 5.279 2.428 8.304 2.428z"/></symbol></svg>