<svg xmlns="http://www.w3.org/2000/svg" width="27" height="22" viewBox="0 0 27 22"><g><g><path fill="#1a1a1a" d="M8.571 21.555c1.92 0 3.722-.304 5.408-.913 1.685-.608 3.125-1.423 4.32-2.444a16.356 16.356 0 0 0 3.088-3.524 15.708 15.708 0 0 0 1.933-4.16 15.365 15.365 0 0 0 .62-5.047 11.332 11.332 0 0 0 2.712-2.796 10.77 10.77 0 0 1-3.114.837c1.172-.703 1.964-1.696 2.377-2.98a10.605 10.605 0 0 1-3.432 1.306C21.412.695 20.095.126 18.533.126c-1.496 0-2.771.528-3.826 1.582-1.055 1.055-1.582 2.33-1.582 3.826 0 .401.045.814.134 1.238a15.06 15.06 0 0 1-6.22-1.665 15.322 15.322 0 0 1-4.93-3.993 5.296 5.296 0 0 0-.736 2.729c0 .926.217 1.785.653 2.578a5.398 5.398 0 0 0 1.758 1.925 5.365 5.365 0 0 1-2.445-.686v.067c0 1.305.41 2.452 1.23 3.44a5.32 5.32 0 0 0 3.106 1.866 5.583 5.583 0 0 1-1.423.185c-.312 0-.653-.028-1.02-.084a5.286 5.286 0 0 0 1.908 2.67 5.27 5.27 0 0 0 3.147 1.08c-1.965 1.54-4.202 2.31-6.713 2.31-.48 0-.916-.022-1.306-.067 2.511 1.619 5.279 2.428 8.304 2.428z"/></g></g></svg>