<svg xmlns="http://www.w3.org/2000/svg" width="27" height="26" viewBox="0 0 27 26"><g><g><path fill="#1a1a1a" d="M.531 22.4V3.28c0-.904.324-1.68.971-2.327s1.423-.97 2.327-.97h19.119c.904 0 1.68.323 2.327.97.647.648.97 1.423.97 2.327V22.4c0 .904-.323 1.68-.97 2.327-.648.647-1.423.97-2.327.97H3.829c-.904 0-1.68-.323-2.327-.97-.647-.648-.97-1.423-.97-2.327zm2.863-.687c0 .29.098.533.293.728a.987.987 0 0 0 .728.293h17.896a.996.996 0 0 0 .72-.293.974.974 0 0 0 .302-.728V10.865h-2.26c.223.703.334 1.434.334 2.193a7.42 7.42 0 0 1-1.071 3.892 7.814 7.814 0 0 1-2.913 2.821 8.044 8.044 0 0 1-4.018 1.038c-2.199 0-4.08-.756-5.642-2.268-1.562-1.512-2.343-3.34-2.343-5.483 0-.759.111-1.49.335-2.193h-2.36zM13.405 7.785c-1.417 0-2.631.488-3.641 1.465-1.01.976-1.515 2.157-1.515 3.54 0 1.384.505 2.565 1.515 3.54 1.01.978 2.224 1.466 3.641 1.466 1.429 0 2.648-.488 3.658-1.465 1.01-.976 1.515-2.157 1.515-3.54 0-1.384-.505-2.565-1.515-3.541-1.01-.977-2.23-1.465-3.658-1.465zm4.704-1.021c0 .323.112.597.335.82.223.223.497.335.82.335h2.914c.323 0 .596-.112.82-.335.223-.223.335-.497.335-.82V4c0-.312-.112-.583-.335-.812a1.103 1.103 0 0 0-.82-.343h-2.913c-.324 0-.598.115-.82.343-.224.229-.336.5-.336.812z"/></g></g></svg>